<?xml version="1.0" encoding="UTF-8"?>
<svg xmlns="http://www.w3.org/2000/svg" xmlns:xlink="http://www.w3.org/1999/xlink" width="24px" height="24px" viewBox="0 0 24 24" version="1.1">
<g id="surface1">
<path style=" stroke:none;fill-rule:nonzero;fill:rgb(49.019608%,45.882353%,93.72549%);fill-opacity:1;" d="M 10.847656 -0.0078125 C 10.875 -0.0078125 10.902344 -0.0078125 10.925781 -0.0078125 C 11 -0.0078125 11.074219 -0.0078125 11.144531 -0.0078125 C 11.207031 -0.0078125 11.265625 -0.0078125 11.328125 -0.0078125 C 11.46875 -0.0078125 11.613281 -0.0078125 11.757812 -0.0078125 C 11.902344 -0.0078125 12.050781 -0.0078125 12.199219 -0.0078125 C 12.324219 -0.0078125 12.453125 -0.0078125 12.578125 -0.0078125 C 12.65625 -0.0078125 12.730469 -0.0078125 12.804688 -0.0078125 C 12.878906 -0.0078125 12.949219 -0.0078125 13.019531 -0.0078125 C 13.046875 -0.0078125 13.070312 -0.0078125 13.097656 -0.0078125 C 13.488281 -0.0117188 13.835938 0.136719 14.117188 0.410156 C 14.378906 0.667969 14.488281 1.007812 14.5625 1.359375 C 14.566406 1.378906 14.570312 1.398438 14.574219 1.417969 C 14.617188 1.617188 14.652344 1.824219 14.683594 2.027344 C 14.6875 2.058594 14.695312 2.085938 14.699219 2.117188 C 14.742188 2.375 14.773438 2.632812 14.789062 2.894531 C 14.800781 2.898438 14.808594 2.898438 14.820312 2.902344 C 15.296875 2.992188 15.726562 3.183594 16.160156 3.394531 C 16.179688 3.402344 16.195312 3.414062 16.214844 3.421875 C 16.230469 3.429688 16.246094 3.4375 16.261719 3.445312 C 16.277344 3.453125 16.289062 3.457031 16.304688 3.464844 C 16.324219 3.472656 16.324219 3.472656 16.34375 3.484375 C 16.398438 3.5 16.4375 3.488281 16.488281 3.464844 C 16.5 3.457031 16.507812 3.449219 16.519531 3.445312 C 16.53125 3.4375 16.546875 3.429688 16.558594 3.421875 C 16.570312 3.414062 16.582031 3.40625 16.597656 3.398438 C 16.609375 3.390625 16.625 3.382812 16.636719 3.375 C 16.730469 3.316406 16.820312 3.253906 16.910156 3.1875 C 16.972656 3.144531 17.039062 3.101562 17.101562 3.054688 C 17.203125 2.988281 17.300781 2.917969 17.402344 2.847656 C 17.414062 2.839844 17.425781 2.832031 17.441406 2.824219 C 17.5 2.78125 17.558594 2.738281 17.617188 2.695312 C 17.984375 2.429688 18.359375 2.265625 18.824219 2.296875 C 18.835938 2.296875 18.847656 2.296875 18.859375 2.296875 C 19.429688 2.332031 19.839844 2.722656 20.226562 3.109375 C 20.242188 3.125 20.242188 3.125 20.257812 3.144531 C 20.269531 3.152344 20.28125 3.164062 20.292969 3.175781 C 20.300781 3.183594 20.3125 3.195312 20.320312 3.203125 C 20.347656 3.234375 20.375 3.265625 20.402344 3.292969 C 20.46875 3.371094 20.539062 3.441406 20.609375 3.511719 C 20.625 3.527344 20.640625 3.539062 20.652344 3.554688 C 20.699219 3.601562 20.746094 3.644531 20.789062 3.691406 C 20.84375 3.742188 20.894531 3.792969 20.949219 3.847656 C 20.96875 3.867188 20.988281 3.886719 21.011719 3.910156 C 21.085938 3.984375 21.15625 4.058594 21.226562 4.140625 C 21.234375 4.148438 21.242188 4.160156 21.25 4.167969 C 21.53125 4.503906 21.761719 4.921875 21.730469 5.375 C 21.726562 5.4375 21.714844 5.503906 21.703125 5.566406 C 21.703125 5.574219 21.703125 5.585938 21.699219 5.59375 C 21.597656 6.121094 21.21875 6.59375 20.855469 6.972656 C 20.753906 7.078125 20.667969 7.191406 20.59375 7.320312 C 20.589844 7.328125 20.585938 7.339844 20.578125 7.347656 C 20.511719 7.472656 20.492188 7.570312 20.53125 7.710938 C 20.539062 7.730469 20.542969 7.75 20.550781 7.769531 C 20.554688 7.78125 20.554688 7.789062 20.558594 7.800781 C 20.632812 8.039062 20.746094 8.257812 20.867188 8.476562 C 20.988281 8.695312 21.109375 8.925781 21.105469 9.179688 C 21.128906 9.179688 21.128906 9.179688 21.152344 9.183594 C 21.308594 9.191406 21.460938 9.207031 21.617188 9.226562 C 21.636719 9.226562 21.636719 9.226562 21.652344 9.230469 C 21.867188 9.257812 22.078125 9.292969 22.292969 9.328125 C 22.304688 9.332031 22.320312 9.335938 22.335938 9.335938 C 22.777344 9.414062 23.242188 9.511719 23.578125 9.824219 C 23.59375 9.835938 23.605469 9.847656 23.621094 9.863281 C 23.734375 9.972656 23.808594 10.085938 23.882812 10.226562 C 23.886719 10.234375 23.890625 10.242188 23.898438 10.253906 C 23.992188 10.445312 24.007812 10.628906 24.007812 10.839844 C 24.007812 10.867188 24.007812 10.894531 24.007812 10.921875 C 24.007812 10.992188 24.007812 11.066406 24.007812 11.140625 C 24.007812 11.203125 24.007812 11.265625 24.007812 11.328125 C 24.007812 11.472656 24.007812 11.617188 24.007812 11.765625 C 24.007812 11.914062 24.007812 12.066406 24.007812 12.214844 C 24.007812 12.34375 24.007812 12.472656 24.007812 12.601562 C 24.007812 12.679688 24.007812 12.757812 24.007812 12.835938 C 24.011719 12.90625 24.011719 12.980469 24.007812 13.050781 C 24.007812 13.078125 24.007812 13.105469 24.007812 13.128906 C 24.011719 13.515625 23.882812 13.871094 23.617188 14.152344 C 23.527344 14.242188 23.421875 14.308594 23.308594 14.371094 C 23.296875 14.378906 23.28125 14.386719 23.269531 14.394531 C 23.175781 14.445312 23.082031 14.480469 22.980469 14.511719 C 22.96875 14.515625 22.957031 14.523438 22.945312 14.527344 C 22.652344 14.621094 22.34375 14.667969 22.035156 14.714844 C 21.980469 14.722656 21.921875 14.734375 21.867188 14.742188 C 21.613281 14.78125 21.359375 14.816406 21.105469 14.835938 C 21.101562 14.84375 21.097656 14.855469 21.097656 14.867188 C 20.953125 15.359375 20.769531 15.839844 20.523438 16.292969 C 20.5 16.347656 20.503906 16.394531 20.519531 16.453125 C 20.539062 16.492188 20.554688 16.523438 20.578125 16.558594 C 20.582031 16.570312 20.589844 16.578125 20.59375 16.589844 C 20.664062 16.695312 20.738281 16.800781 20.8125 16.90625 C 20.832031 16.933594 20.851562 16.960938 20.871094 16.988281 C 20.933594 17.074219 20.996094 17.160156 21.054688 17.242188 C 21.089844 17.289062 21.121094 17.335938 21.15625 17.378906 C 21.171875 17.402344 21.1875 17.425781 21.203125 17.449219 C 21.542969 17.917969 21.777344 18.398438 21.699219 18.996094 C 21.6875 19.058594 21.667969 19.113281 21.644531 19.171875 C 21.640625 19.183594 21.632812 19.199219 21.628906 19.214844 C 21.53125 19.472656 21.371094 19.679688 21.183594 19.878906 C 21.175781 19.886719 21.167969 19.898438 21.15625 19.910156 C 21.027344 20.046875 20.894531 20.175781 20.765625 20.308594 C 20.75 20.324219 20.734375 20.335938 20.722656 20.351562 C 20.65625 20.417969 20.589844 20.484375 20.527344 20.546875 C 20.453125 20.621094 20.378906 20.695312 20.304688 20.773438 C 20.246094 20.832031 20.1875 20.890625 20.128906 20.945312 C 20.09375 20.980469 20.058594 21.015625 20.027344 21.050781 C 19.652344 21.429688 19.242188 21.707031 18.695312 21.726562 C 18.242188 21.714844 17.851562 21.511719 17.492188 21.25 C 17.460938 21.226562 17.425781 21.203125 17.394531 21.179688 C 17.230469 21.0625 17.070312 20.941406 16.914062 20.820312 C 16.855469 20.777344 16.800781 20.734375 16.742188 20.691406 C 16.734375 20.683594 16.722656 20.675781 16.714844 20.667969 C 16.570312 20.550781 16.570312 20.550781 16.394531 20.507812 C 16.308594 20.527344 16.234375 20.558594 16.15625 20.597656 C 16.132812 20.609375 16.109375 20.621094 16.082031 20.632812 C 16.070312 20.640625 16.058594 20.644531 16.042969 20.652344 C 15.980469 20.679688 15.917969 20.710938 15.855469 20.738281 C 15.839844 20.742188 15.828125 20.75 15.816406 20.753906 C 15.777344 20.769531 15.738281 20.789062 15.699219 20.804688 C 15.6875 20.8125 15.671875 20.816406 15.660156 20.824219 C 15.347656 20.960938 15.347656 20.960938 15.195312 21.023438 C 15.183594 21.027344 15.171875 21.03125 15.160156 21.039062 C 15.046875 21.082031 14.941406 21.105469 14.820312 21.105469 C 14.820312 21.117188 14.820312 21.132812 14.816406 21.148438 C 14.808594 21.304688 14.792969 21.464844 14.773438 21.621094 C 14.769531 21.640625 14.769531 21.640625 14.769531 21.660156 C 14.558594 23.3125 14.558594 23.3125 14.023438 23.726562 C 13.746094 23.925781 13.453125 24.003906 13.117188 24.003906 C 13.089844 24.003906 13.0625 24.003906 13.035156 24.003906 C 12.960938 24.003906 12.890625 24.003906 12.816406 24.003906 C 12.773438 24.003906 12.726562 24.003906 12.683594 24.003906 C 12.523438 24.007812 12.363281 24.007812 12.207031 24.007812 C 12.058594 24.007812 11.910156 24.007812 11.761719 24.007812 C 11.636719 24.007812 11.507812 24.007812 11.382812 24.007812 C 11.308594 24.007812 11.230469 24.007812 11.15625 24.007812 C 11.085938 24.007812 11.011719 24.007812 10.941406 24.007812 C 10.914062 24.007812 10.890625 24.007812 10.863281 24.007812 C 10.492188 24.011719 10.1875 23.878906 9.898438 23.65625 C 9.886719 23.644531 9.875 23.636719 9.863281 23.625 C 9.5625 23.378906 9.445312 22.96875 9.378906 22.605469 C 9.375 22.59375 9.375 22.585938 9.371094 22.574219 C 9.328125 22.355469 9.292969 22.132812 9.261719 21.914062 C 9.253906 21.871094 9.246094 21.828125 9.242188 21.785156 C 9.203125 21.558594 9.167969 21.335938 9.164062 21.105469 C 9.144531 21.097656 9.144531 21.097656 9.128906 21.09375 C 8.714844 20.96875 8.320312 20.816406 7.921875 20.644531 C 7.851562 20.613281 7.777344 20.585938 7.707031 20.554688 C 7.6875 20.546875 7.6875 20.546875 7.671875 20.539062 C 7.644531 20.527344 7.617188 20.515625 7.589844 20.503906 C 7.582031 20.511719 7.578125 20.515625 7.570312 20.519531 C 7.394531 20.660156 7.214844 20.792969 7.035156 20.925781 C 7.023438 20.933594 7.011719 20.941406 7 20.949219 C 5.945312 21.71875 5.945312 21.71875 5.414062 21.722656 C 5.402344 21.722656 5.390625 21.722656 5.378906 21.722656 C 5.355469 21.722656 5.328125 21.722656 5.304688 21.722656 C 5.269531 21.722656 5.234375 21.722656 5.195312 21.726562 C 5.066406 21.726562 4.953125 21.71875 4.828125 21.675781 C 4.8125 21.667969 4.796875 21.664062 4.78125 21.660156 C 4.535156 21.558594 4.335938 21.386719 4.140625 21.210938 C 4.125 21.195312 4.109375 21.183594 4.09375 21.171875 C 4.011719 21.09375 3.933594 21.015625 3.859375 20.933594 C 3.8125 20.878906 3.761719 20.832031 3.714844 20.785156 C 3.683594 20.753906 3.65625 20.722656 3.628906 20.691406 C 3.5625 20.617188 3.492188 20.542969 3.417969 20.472656 C 3.40625 20.457031 3.390625 20.445312 3.375 20.429688 C 3.347656 20.398438 3.316406 20.371094 3.285156 20.339844 C 3.25 20.300781 3.210938 20.261719 3.171875 20.226562 C 3.144531 20.195312 3.113281 20.167969 3.082031 20.136719 C 3.0625 20.117188 3.042969 20.09375 3.023438 20.074219 C 2.953125 20.007812 2.886719 19.941406 2.816406 19.882812 C 2.777344 19.847656 2.742188 19.808594 2.707031 19.769531 C 2.699219 19.761719 2.695312 19.75 2.6875 19.742188 C 2.414062 19.410156 2.292969 19.007812 2.324219 18.585938 C 2.347656 18.402344 2.394531 18.226562 2.476562 18.058594 C 2.480469 18.050781 2.484375 18.039062 2.488281 18.03125 C 2.566406 17.875 2.65625 17.734375 2.753906 17.59375 C 2.773438 17.566406 2.792969 17.539062 2.8125 17.511719 C 2.933594 17.339844 3.0625 17.175781 3.203125 17.019531 C 3.316406 16.902344 3.417969 16.78125 3.496094 16.636719 C 3.5 16.625 3.507812 16.613281 3.511719 16.605469 C 3.558594 16.503906 3.527344 16.40625 3.496094 16.304688 C 3.4375 16.144531 3.359375 15.988281 3.273438 15.839844 C 3.105469 15.550781 3 15.242188 2.894531 14.925781 C 2.816406 14.910156 2.738281 14.898438 2.660156 14.882812 C 2.632812 14.878906 2.601562 14.871094 2.574219 14.867188 C 2.382812 14.832031 2.195312 14.800781 2.007812 14.769531 C 1.945312 14.757812 1.878906 14.746094 1.816406 14.738281 C 1.765625 14.726562 1.714844 14.71875 1.664062 14.710938 C 1.136719 14.625 0.609375 14.488281 0.253906 14.054688 C 0.207031 13.988281 0.171875 13.917969 0.136719 13.84375 C 0.128906 13.832031 0.121094 13.816406 0.113281 13.804688 C 0.0117188 13.597656 -0.0078125 13.402344 -0.0078125 13.175781 C -0.0078125 13.148438 -0.0078125 13.121094 -0.0078125 13.09375 C -0.0078125 13.023438 -0.0078125 12.949219 -0.0078125 12.875 C -0.0078125 12.800781 -0.0078125 12.722656 -0.0078125 12.644531 C -0.0078125 12.515625 -0.0078125 12.386719 -0.0078125 12.257812 C -0.0078125 12.109375 -0.0078125 11.960938 -0.0078125 11.8125 C -0.0078125 11.683594 -0.0078125 11.554688 -0.0078125 11.425781 C -0.0078125 11.351562 -0.0078125 11.273438 -0.0078125 11.199219 C -0.0078125 11.125 -0.0078125 11.054688 -0.0078125 10.984375 C -0.0078125 10.957031 -0.0078125 10.929688 -0.0078125 10.90625 C -0.0078125 10.519531 0.128906 10.167969 0.398438 9.890625 C 0.792969 9.503906 1.363281 9.445312 1.882812 9.355469 C 1.933594 9.347656 1.984375 9.335938 2.035156 9.328125 C 2.097656 9.320312 2.15625 9.308594 2.21875 9.296875 C 2.230469 9.296875 2.242188 9.292969 2.253906 9.292969 C 2.46875 9.253906 2.679688 9.222656 2.894531 9.210938 C 2.898438 9.203125 2.898438 9.191406 2.898438 9.183594 C 2.996094 8.699219 3.183594 8.261719 3.402344 7.820312 C 3.445312 7.734375 3.449219 7.640625 3.417969 7.546875 C 3.351562 7.390625 3.238281 7.253906 3.140625 7.121094 C 3.0625 7.011719 2.988281 6.902344 2.910156 6.796875 C 2.898438 6.777344 2.898438 6.777344 2.886719 6.757812 C 2.765625 6.585938 2.644531 6.414062 2.523438 6.238281 C 2.507812 6.214844 2.492188 6.1875 2.472656 6.164062 C 2.214844 5.78125 2.214844 5.285156 2.296875 4.851562 C 2.363281 4.585938 2.570312 4.34375 2.753906 4.148438 C 2.78125 4.117188 2.808594 4.085938 2.839844 4.054688 C 2.902344 3.980469 2.96875 3.914062 3.035156 3.847656 C 3.046875 3.835938 3.0625 3.820312 3.074219 3.808594 C 3.085938 3.796875 3.097656 3.785156 3.109375 3.773438 C 3.121094 3.761719 3.132812 3.753906 3.140625 3.742188 C 3.171875 3.710938 3.203125 3.683594 3.234375 3.65625 C 3.3125 3.589844 3.382812 3.519531 3.457031 3.445312 C 3.46875 3.429688 3.484375 3.417969 3.5 3.402344 C 3.546875 3.355469 3.589844 3.308594 3.636719 3.261719 C 3.691406 3.207031 3.746094 3.15625 3.796875 3.101562 C 3.820312 3.078125 3.839844 3.058594 3.863281 3.039062 C 3.9375 2.960938 4.011719 2.890625 4.09375 2.820312 C 4.105469 2.8125 4.113281 2.804688 4.125 2.796875 C 4.476562 2.496094 4.917969 2.277344 5.394531 2.316406 C 5.445312 2.320312 5.496094 2.328125 5.550781 2.339844 C 5.566406 2.34375 5.566406 2.34375 5.582031 2.347656 C 5.875 2.40625 6.148438 2.550781 6.390625 2.730469 C 6.398438 2.734375 6.40625 2.742188 6.414062 2.75 C 6.582031 2.871094 6.734375 3.003906 6.886719 3.144531 C 7.054688 3.300781 7.207031 3.417969 7.425781 3.492188 C 7.441406 3.496094 7.441406 3.496094 7.457031 3.503906 C 7.574219 3.539062 7.667969 3.53125 7.78125 3.480469 C 7.789062 3.476562 7.800781 3.46875 7.8125 3.464844 C 7.929688 3.410156 8.042969 3.347656 8.152344 3.273438 C 8.28125 3.191406 8.421875 3.152344 8.566406 3.113281 C 8.695312 3.078125 8.820312 3.042969 8.941406 2.984375 C 8.949219 2.980469 8.960938 2.972656 8.96875 2.96875 C 9.066406 2.921875 9.105469 2.859375 9.144531 2.761719 C 9.148438 2.746094 9.15625 2.730469 9.160156 2.714844 C 9.21875 2.542969 9.238281 2.367188 9.257812 2.1875 C 9.265625 2.113281 9.273438 2.039062 9.28125 1.964844 C 9.28125 1.949219 9.285156 1.933594 9.285156 1.917969 C 9.378906 1.0625 9.378906 1.0625 9.554688 0.734375 C 9.566406 0.710938 9.566406 0.710938 9.578125 0.6875 C 9.765625 0.351562 10.054688 0.140625 10.417969 0.0351562 C 10.5625 -0.00390625 10.699219 -0.0078125 10.847656 -0.0078125 Z M 12.039062 1.335938 C 11.910156 1.335938 11.785156 1.335938 11.65625 1.339844 C 11.585938 1.339844 11.515625 1.339844 11.441406 1.339844 C 11.371094 1.339844 11.300781 1.339844 11.230469 1.34375 C 11.203125 1.34375 11.175781 1.34375 11.148438 1.34375 C 11.113281 1.34375 11.074219 1.34375 11.039062 1.34375 C 11.027344 1.34375 11.015625 1.34375 11.007812 1.34375 C 10.9375 1.34375 10.890625 1.359375 10.828125 1.394531 C 10.753906 1.488281 10.746094 1.601562 10.730469 1.71875 C 10.726562 1.742188 10.722656 1.761719 10.71875 1.785156 C 10.710938 1.835938 10.703125 1.886719 10.695312 1.941406 C 10.679688 2.03125 10.664062 2.125 10.648438 2.214844 C 10.644531 2.230469 10.644531 2.25 10.640625 2.265625 C 10.632812 2.300781 10.628906 2.335938 10.621094 2.367188 C 10.609375 2.4375 10.597656 2.507812 10.589844 2.578125 C 10.582031 2.613281 10.574219 2.648438 10.570312 2.6875 C 10.554688 2.777344 10.539062 2.867188 10.523438 2.957031 C 10.511719 3.046875 10.496094 3.136719 10.480469 3.226562 C 10.476562 3.261719 10.46875 3.292969 10.464844 3.328125 C 10.375 3.859375 10.375 3.859375 10.195312 4 C 10.132812 4.039062 10.066406 4.070312 10 4.097656 C 9.988281 4.101562 9.976562 4.109375 9.964844 4.113281 C 9.828125 4.167969 9.6875 4.210938 9.546875 4.253906 C 9.253906 4.347656 8.964844 4.445312 8.683594 4.574219 C 8.667969 4.582031 8.652344 4.589844 8.632812 4.597656 C 8.433594 4.691406 8.242188 4.789062 8.054688 4.898438 C 7.808594 5.042969 7.527344 5.128906 7.242188 5.054688 C 7.207031 5.042969 7.207031 5.042969 7.171875 5.023438 C 7.160156 5.019531 7.152344 5.015625 7.144531 5.011719 C 6.898438 4.894531 6.679688 4.738281 6.464844 4.574219 C 6.449219 4.5625 6.433594 4.550781 6.417969 4.539062 C 6.34375 4.484375 6.269531 4.425781 6.199219 4.367188 C 5.976562 4.191406 5.75 4.019531 5.515625 3.859375 C 5.488281 3.839844 5.460938 3.820312 5.433594 3.796875 C 5.375 3.757812 5.347656 3.742188 5.28125 3.753906 C 5.066406 3.8125 4.902344 4.035156 4.753906 4.1875 C 4.71875 4.222656 4.679688 4.257812 4.644531 4.296875 C 4.621094 4.320312 4.597656 4.339844 4.578125 4.363281 C 4.519531 4.421875 4.457031 4.480469 4.394531 4.53125 C 4.296875 4.621094 4.203125 4.714844 4.109375 4.808594 C 4.082031 4.835938 4.054688 4.863281 4.027344 4.890625 C 3.988281 4.929688 3.949219 4.96875 3.910156 5.007812 C 3.898438 5.019531 3.886719 5.03125 3.871094 5.042969 C 3.78125 5.132812 3.707031 5.25 3.703125 5.386719 C 3.722656 5.425781 3.738281 5.457031 3.757812 5.492188 C 3.765625 5.503906 3.769531 5.511719 3.777344 5.523438 C 3.859375 5.664062 3.957031 5.792969 4.050781 5.925781 C 4.058594 5.9375 4.066406 5.949219 4.074219 5.960938 C 4.117188 6.019531 4.160156 6.074219 4.199219 6.132812 C 4.238281 6.1875 4.28125 6.242188 4.320312 6.300781 C 4.375 6.378906 4.433594 6.457031 4.488281 6.535156 C 4.496094 6.546875 4.503906 6.558594 4.511719 6.570312 C 4.566406 6.640625 4.617188 6.710938 4.671875 6.785156 C 4.742188 6.882812 4.816406 6.980469 4.882812 7.082031 C 4.890625 7.089844 4.894531 7.101562 4.902344 7.109375 C 4.996094 7.25 5.027344 7.359375 5.03125 7.527344 C 5.03125 7.550781 5.03125 7.550781 5.03125 7.574219 C 5.035156 7.824219 4.910156 8.035156 4.800781 8.25 C 4.660156 8.519531 4.53125 8.789062 4.425781 9.074219 C 4.417969 9.089844 4.414062 9.105469 4.40625 9.125 C 4.34375 9.292969 4.285156 9.464844 4.230469 9.640625 C 4.226562 9.652344 4.222656 9.667969 4.21875 9.679688 C 4.199219 9.742188 4.179688 9.804688 4.160156 9.867188 C 4.101562 10.0625 4.03125 10.246094 3.871094 10.378906 C 3.859375 10.386719 3.851562 10.394531 3.84375 10.402344 C 3.65625 10.535156 3.355469 10.546875 3.136719 10.585938 C 3.097656 10.59375 3.054688 10.597656 3.015625 10.605469 C 2.78125 10.648438 2.550781 10.683594 2.316406 10.722656 C 2.277344 10.726562 2.238281 10.734375 2.203125 10.738281 C 2.183594 10.742188 2.183594 10.742188 2.164062 10.746094 C 2.136719 10.75 2.113281 10.753906 2.089844 10.757812 C 2.015625 10.769531 1.941406 10.78125 1.867188 10.792969 C 1.824219 10.800781 1.777344 10.808594 1.730469 10.8125 C 1.710938 10.816406 1.6875 10.820312 1.667969 10.824219 C 1.636719 10.828125 1.609375 10.832031 1.578125 10.835938 C 1.554688 10.839844 1.554688 10.839844 1.527344 10.84375 C 1.460938 10.867188 1.425781 10.914062 1.382812 10.972656 C 1.351562 11.035156 1.347656 11.097656 1.347656 11.167969 C 1.347656 11.183594 1.347656 11.203125 1.347656 11.21875 C 1.347656 11.238281 1.347656 11.253906 1.347656 11.273438 C 1.347656 11.292969 1.347656 11.3125 1.347656 11.332031 C 1.347656 11.382812 1.347656 11.4375 1.347656 11.488281 C 1.347656 11.523438 1.347656 11.554688 1.347656 11.585938 C 1.347656 11.691406 1.347656 11.792969 1.347656 11.894531 C 1.347656 12.015625 1.347656 12.132812 1.34375 12.25 C 1.34375 12.34375 1.34375 12.433594 1.34375 12.527344 C 1.34375 12.582031 1.34375 12.636719 1.34375 12.691406 C 1.34375 12.75 1.34375 12.8125 1.34375 12.871094 C 1.34375 12.890625 1.34375 12.910156 1.34375 12.925781 C 1.34375 13.019531 1.347656 13.089844 1.394531 13.171875 C 1.464844 13.222656 1.53125 13.242188 1.617188 13.253906 C 1.628906 13.257812 1.640625 13.257812 1.652344 13.261719 C 1.691406 13.269531 1.730469 13.273438 1.773438 13.28125 C 1.800781 13.285156 1.828125 13.292969 1.859375 13.296875 C 1.953125 13.3125 2.046875 13.328125 2.144531 13.34375 C 2.1875 13.351562 2.234375 13.359375 2.277344 13.367188 C 2.304688 13.371094 2.328125 13.375 2.351562 13.378906 C 2.417969 13.390625 2.480469 13.402344 2.546875 13.410156 C 2.570312 13.417969 2.597656 13.421875 2.621094 13.425781 C 2.636719 13.425781 2.648438 13.429688 2.660156 13.433594 C 2.738281 13.445312 2.816406 13.457031 2.894531 13.46875 C 2.941406 13.476562 2.992188 13.488281 3.042969 13.496094 C 3.0625 13.5 3.085938 13.503906 3.109375 13.507812 C 3.230469 13.527344 3.347656 13.546875 3.46875 13.574219 C 3.476562 13.578125 3.488281 13.582031 3.5 13.582031 C 3.695312 13.628906 3.917969 13.707031 4.03125 13.886719 C 4.105469 14.035156 4.160156 14.191406 4.210938 14.347656 C 4.238281 14.425781 4.261719 14.503906 4.289062 14.585938 C 4.296875 14.601562 4.300781 14.617188 4.304688 14.632812 C 4.464844 15.097656 4.679688 15.535156 4.910156 15.972656 C 4.9375 16.023438 4.964844 16.078125 4.992188 16.128906 C 4.996094 16.140625 5.003906 16.152344 5.007812 16.164062 C 5.066406 16.292969 5.074219 16.417969 5.074219 16.554688 C 5.074219 16.570312 5.074219 16.585938 5.078125 16.597656 C 5.074219 16.871094 4.902344 17.078125 4.75 17.28125 C 4.699219 17.347656 4.652344 17.414062 4.605469 17.484375 C 4.386719 17.789062 4.167969 18.09375 3.9375 18.390625 C 3.910156 18.421875 3.886719 18.453125 3.863281 18.488281 C 3.855469 18.496094 3.847656 18.507812 3.839844 18.515625 C 3.796875 18.570312 3.765625 18.621094 3.75 18.691406 C 3.753906 18.726562 3.753906 18.726562 3.773438 18.761719 C 3.777344 18.78125 3.777344 18.78125 3.785156 18.796875 C 3.859375 18.929688 3.96875 19.035156 4.078125 19.140625 C 4.101562 19.164062 4.125 19.1875 4.152344 19.214844 C 4.167969 19.230469 4.183594 19.246094 4.199219 19.261719 C 4.210938 19.273438 4.210938 19.273438 4.222656 19.285156 C 4.261719 19.324219 4.300781 19.359375 4.34375 19.394531 C 4.425781 19.46875 4.503906 19.546875 4.582031 19.628906 C 4.628906 19.675781 4.675781 19.726562 4.726562 19.773438 C 4.785156 19.835938 4.847656 19.898438 4.90625 19.960938 C 4.957031 20.011719 5.007812 20.0625 5.058594 20.109375 C 5.074219 20.128906 5.09375 20.148438 5.113281 20.167969 C 5.140625 20.195312 5.164062 20.222656 5.191406 20.25 C 5.199219 20.257812 5.207031 20.265625 5.214844 20.273438 C 5.238281 20.296875 5.238281 20.296875 5.28125 20.324219 C 5.355469 20.324219 5.417969 20.292969 5.484375 20.257812 C 5.492188 20.253906 5.503906 20.246094 5.515625 20.242188 C 5.613281 20.191406 5.703125 20.128906 5.789062 20.0625 C 5.835938 20.027344 5.878906 19.996094 5.921875 19.964844 C 5.960938 19.9375 5.996094 19.910156 6.03125 19.882812 C 6.15625 19.792969 6.28125 19.703125 6.410156 19.609375 C 6.441406 19.585938 6.476562 19.5625 6.507812 19.539062 C 6.519531 19.53125 6.53125 19.523438 6.542969 19.515625 C 6.601562 19.472656 6.660156 19.429688 6.71875 19.386719 C 6.984375 19.1875 7.253906 18.988281 7.597656 18.980469 C 7.609375 18.980469 7.621094 18.980469 7.632812 18.980469 C 7.859375 18.976562 8.089844 19.132812 8.285156 19.234375 C 8.726562 19.460938 9.175781 19.632812 9.644531 19.789062 C 9.660156 19.792969 9.675781 19.800781 9.6875 19.804688 C 9.703125 19.808594 9.71875 19.8125 9.730469 19.820312 C 9.746094 19.824219 9.757812 19.828125 9.773438 19.832031 C 9.796875 19.839844 9.820312 19.847656 9.84375 19.855469 C 10.265625 20 10.265625 20 10.378906 20.21875 C 10.457031 20.382812 10.484375 20.5625 10.515625 20.738281 C 10.519531 20.765625 10.523438 20.789062 10.527344 20.8125 C 10.539062 20.878906 10.550781 20.945312 10.5625 21.007812 C 10.570312 21.0625 10.582031 21.117188 10.589844 21.171875 C 10.636719 21.429688 10.679688 21.6875 10.722656 21.945312 C 10.726562 21.964844 10.726562 21.984375 10.730469 22.003906 C 10.746094 22.089844 10.761719 22.179688 10.773438 22.265625 C 10.777344 22.296875 10.785156 22.328125 10.789062 22.359375 C 10.789062 22.371094 10.792969 22.382812 10.792969 22.398438 C 10.8125 22.496094 10.839844 22.570312 10.921875 22.636719 C 10.972656 22.648438 11.023438 22.652344 11.082031 22.652344 C 11.097656 22.652344 11.113281 22.652344 11.132812 22.652344 C 11.152344 22.652344 11.167969 22.652344 11.1875 22.652344 C 11.207031 22.652344 11.226562 22.652344 11.246094 22.652344 C 11.300781 22.652344 11.355469 22.652344 11.410156 22.652344 C 11.441406 22.652344 11.476562 22.652344 11.511719 22.652344 C 11.628906 22.652344 11.746094 22.652344 11.863281 22.652344 C 11.972656 22.652344 12.082031 22.652344 12.191406 22.652344 C 12.285156 22.652344 12.378906 22.652344 12.472656 22.652344 C 12.527344 22.652344 12.582031 22.652344 12.640625 22.652344 C 12.703125 22.652344 12.765625 22.652344 12.828125 22.652344 C 12.855469 22.652344 12.855469 22.652344 12.882812 22.652344 C 12.910156 22.652344 12.910156 22.652344 12.933594 22.652344 C 12.957031 22.652344 12.957031 22.652344 12.980469 22.652344 C 13.042969 22.648438 13.085938 22.628906 13.136719 22.589844 C 13.179688 22.53125 13.1875 22.484375 13.199219 22.414062 C 13.203125 22.402344 13.207031 22.390625 13.207031 22.375 C 13.214844 22.332031 13.222656 22.289062 13.230469 22.246094 C 13.234375 22.214844 13.242188 22.183594 13.246094 22.152344 C 13.257812 22.070312 13.273438 21.988281 13.285156 21.902344 C 13.296875 21.847656 13.304688 21.792969 13.3125 21.738281 C 13.339844 21.582031 13.367188 21.425781 13.390625 21.265625 C 13.40625 21.171875 13.421875 21.074219 13.4375 20.976562 C 13.445312 20.941406 13.449219 20.90625 13.457031 20.867188 C 13.566406 20.183594 13.566406 20.183594 13.800781 20.011719 C 13.835938 19.988281 13.875 19.96875 13.914062 19.953125 C 13.921875 19.949219 13.933594 19.941406 13.945312 19.9375 C 14.066406 19.882812 14.195312 19.839844 14.320312 19.800781 C 14.875 19.628906 15.402344 19.40625 15.914062 19.136719 C 16.171875 19 16.414062 18.898438 16.707031 18.984375 C 16.9375 19.066406 17.128906 19.207031 17.324219 19.351562 C 17.347656 19.367188 17.371094 19.382812 17.394531 19.398438 C 17.546875 19.507812 17.695312 19.617188 17.84375 19.726562 C 17.878906 19.753906 17.914062 19.78125 17.953125 19.808594 C 17.964844 19.816406 17.976562 19.824219 17.988281 19.832031 C 18.011719 19.851562 18.035156 19.867188 18.058594 19.886719 C 18.117188 19.929688 18.179688 19.976562 18.238281 20.019531 C 18.476562 20.214844 18.476562 20.214844 18.765625 20.28125 C 18.839844 20.246094 18.894531 20.179688 18.945312 20.121094 C 19.019531 20.039062 19.097656 19.960938 19.175781 19.882812 C 19.191406 19.867188 19.207031 19.851562 19.222656 19.839844 C 19.265625 19.792969 19.3125 19.746094 19.359375 19.699219 C 19.414062 19.648438 19.464844 19.59375 19.519531 19.539062 C 19.542969 19.519531 19.5625 19.5 19.582031 19.476562 C 19.648438 19.410156 19.714844 19.34375 19.773438 19.273438 C 19.820312 19.222656 19.867188 19.175781 19.914062 19.132812 C 19.9375 19.109375 19.960938 19.089844 19.980469 19.066406 C 20.015625 19.035156 20.046875 19.003906 20.082031 18.96875 C 20.113281 18.9375 20.148438 18.90625 20.179688 18.875 C 20.191406 18.863281 20.199219 18.855469 20.210938 18.84375 C 20.238281 18.820312 20.261719 18.796875 20.28125 18.765625 C 20.28125 18.691406 20.246094 18.628906 20.214844 18.5625 C 20.210938 18.554688 20.203125 18.542969 20.199219 18.53125 C 20.136719 18.414062 20.058594 18.304688 19.980469 18.195312 C 19.972656 18.183594 19.964844 18.171875 19.957031 18.164062 C 19.925781 18.117188 19.890625 18.074219 19.859375 18.027344 C 19.800781 17.945312 19.742188 17.863281 19.6875 17.78125 C 19.621094 17.683594 19.550781 17.585938 19.476562 17.492188 C 19.402344 17.390625 19.328125 17.285156 19.257812 17.179688 C 19.226562 17.132812 19.191406 17.082031 19.15625 17.039062 C 19.113281 16.976562 19.078125 16.910156 19.046875 16.84375 C 19.039062 16.832031 19.035156 16.820312 19.03125 16.8125 C 18.9375 16.621094 18.925781 16.433594 18.988281 16.230469 C 19.003906 16.1875 19.023438 16.148438 19.042969 16.109375 C 19.046875 16.097656 19.050781 16.085938 19.058594 16.074219 C 19.121094 15.9375 19.1875 15.800781 19.257812 15.664062 C 19.382812 15.417969 19.507812 15.171875 19.605469 14.910156 C 19.609375 14.894531 19.617188 14.878906 19.621094 14.867188 C 19.71875 14.605469 19.804688 14.339844 19.882812 14.070312 C 19.941406 13.867188 20.035156 13.71875 20.214844 13.609375 C 20.269531 13.578125 20.320312 13.566406 20.378906 13.554688 C 20.390625 13.550781 20.40625 13.546875 20.417969 13.546875 C 20.648438 13.496094 20.882812 13.457031 21.113281 13.417969 C 21.183594 13.40625 21.253906 13.394531 21.320312 13.386719 C 21.539062 13.347656 21.757812 13.3125 21.976562 13.273438 C 22.042969 13.265625 22.109375 13.253906 22.175781 13.242188 C 22.21875 13.234375 22.261719 13.226562 22.304688 13.222656 C 22.332031 13.214844 22.355469 13.210938 22.382812 13.207031 C 22.394531 13.207031 22.402344 13.203125 22.414062 13.203125 C 22.507812 13.1875 22.574219 13.152344 22.636719 13.078125 C 22.648438 13.027344 22.652344 12.976562 22.652344 12.917969 C 22.652344 12.902344 22.652344 12.886719 22.652344 12.867188 C 22.652344 12.847656 22.652344 12.832031 22.652344 12.8125 C 22.652344 12.792969 22.652344 12.773438 22.652344 12.753906 C 22.652344 12.699219 22.652344 12.644531 22.652344 12.589844 C 22.652344 12.558594 22.652344 12.523438 22.652344 12.488281 C 22.652344 12.371094 22.652344 12.253906 22.652344 12.136719 C 22.652344 12.027344 22.652344 11.917969 22.652344 11.808594 C 22.652344 11.714844 22.652344 11.621094 22.652344 11.527344 C 22.652344 11.472656 22.652344 11.417969 22.652344 11.359375 C 22.652344 11.296875 22.652344 11.234375 22.652344 11.171875 C 22.652344 11.144531 22.652344 11.144531 22.652344 11.117188 C 22.652344 11.101562 22.652344 11.082031 22.652344 11.066406 C 22.652344 11.042969 22.652344 11.042969 22.652344 11.019531 C 22.648438 10.957031 22.628906 10.917969 22.59375 10.867188 C 22.519531 10.8125 22.445312 10.804688 22.359375 10.789062 C 22.339844 10.785156 22.316406 10.78125 22.296875 10.777344 C 22.238281 10.765625 22.179688 10.757812 22.121094 10.746094 C 22.078125 10.738281 22.035156 10.730469 21.992188 10.726562 C 21.714844 10.675781 21.4375 10.632812 21.160156 10.585938 C 21.074219 10.570312 20.984375 10.554688 20.894531 10.539062 C 20.863281 10.535156 20.828125 10.527344 20.796875 10.523438 C 20.175781 10.421875 20.175781 10.421875 20.03125 10.246094 C 19.992188 10.1875 19.96875 10.125 19.945312 10.058594 C 19.941406 10.042969 19.9375 10.027344 19.929688 10.011719 C 19.898438 9.921875 19.867188 9.832031 19.835938 9.742188 C 19.625 9.121094 19.359375 8.527344 19.0625 7.941406 C 18.953125 7.730469 18.929688 7.472656 18.988281 7.246094 C 19.054688 7.09375 19.15625 6.957031 19.253906 6.824219 C 19.285156 6.78125 19.316406 6.738281 19.34375 6.699219 C 19.371094 6.664062 19.394531 6.628906 19.417969 6.59375 C 19.429688 6.582031 19.4375 6.570312 19.445312 6.558594 C 19.460938 6.535156 19.476562 6.511719 19.496094 6.488281 C 19.519531 6.457031 19.546875 6.421875 19.570312 6.386719 C 19.578125 6.375 19.585938 6.363281 19.59375 6.351562 C 19.636719 6.292969 19.683594 6.230469 19.726562 6.171875 C 19.820312 6.035156 19.921875 5.902344 20.019531 5.773438 C 20.046875 5.738281 20.070312 5.707031 20.097656 5.671875 C 20.128906 5.632812 20.160156 5.59375 20.191406 5.550781 C 20.265625 5.464844 20.265625 5.464844 20.300781 5.359375 C 20.277344 5.183594 20.097656 5.03125 19.976562 4.910156 C 19.949219 4.886719 19.925781 4.859375 19.898438 4.835938 C 19.882812 4.816406 19.863281 4.800781 19.847656 4.785156 C 19.835938 4.773438 19.835938 4.773438 19.824219 4.761719 C 19.785156 4.722656 19.746094 4.6875 19.703125 4.648438 C 19.617188 4.578125 19.542969 4.496094 19.464844 4.417969 C 19.414062 4.367188 19.367188 4.320312 19.320312 4.269531 C 19.257812 4.207031 19.199219 4.148438 19.136719 4.085938 C 19.085938 4.035156 19.039062 3.984375 18.988281 3.933594 C 18.96875 3.914062 18.949219 3.894531 18.933594 3.875 C 18.90625 3.847656 18.878906 3.824219 18.851562 3.796875 C 18.84375 3.789062 18.839844 3.78125 18.828125 3.773438 C 18.804688 3.746094 18.804688 3.746094 18.765625 3.71875 C 18.691406 3.722656 18.628906 3.753906 18.5625 3.785156 C 18.546875 3.792969 18.546875 3.792969 18.53125 3.800781 C 18.433594 3.855469 18.34375 3.917969 18.253906 3.984375 C 18.210938 4.015625 18.167969 4.046875 18.121094 4.082031 C 18.097656 4.097656 18.074219 4.117188 18.050781 4.132812 C 17.957031 4.203125 17.863281 4.269531 17.773438 4.335938 C 17.691406 4.394531 17.609375 4.457031 17.527344 4.515625 C 17.40625 4.605469 17.28125 4.691406 17.160156 4.78125 C 17.132812 4.800781 17.105469 4.820312 17.074219 4.839844 C 16.835938 5.003906 16.671875 5.078125 16.378906 5.054688 C 16.117188 5.007812 15.855469 4.84375 15.625 4.71875 C 15.238281 4.507812 14.816406 4.359375 14.398438 4.226562 C 14.378906 4.222656 14.363281 4.214844 14.34375 4.210938 C 14.257812 4.183594 14.167969 4.152344 14.082031 4.125 C 14.046875 4.117188 14.015625 4.105469 13.984375 4.09375 C 13.96875 4.089844 13.953125 4.085938 13.9375 4.082031 C 13.808594 4.039062 13.695312 3.972656 13.621094 3.851562 C 13.609375 3.832031 13.609375 3.832031 13.597656 3.8125 C 13.539062 3.691406 13.503906 3.570312 13.480469 3.4375 C 13.476562 3.414062 13.476562 3.414062 13.472656 3.390625 C 13.464844 3.339844 13.457031 3.285156 13.445312 3.234375 C 13.441406 3.199219 13.433594 3.164062 13.425781 3.125 C 13.390625 2.910156 13.355469 2.695312 13.320312 2.476562 C 13.320312 2.464844 13.316406 2.453125 13.316406 2.441406 C 13.296875 2.324219 13.277344 2.207031 13.261719 2.089844 C 13.253906 2.046875 13.25 2.003906 13.242188 1.960938 C 13.238281 1.929688 13.234375 1.902344 13.226562 1.871094 C 13.1875 1.59375 13.1875 1.59375 13.035156 1.363281 C 12.890625 1.3125 12.714844 1.332031 12.5625 1.332031 C 12.535156 1.332031 12.507812 1.332031 12.476562 1.332031 C 12.417969 1.332031 12.359375 1.332031 12.300781 1.335938 C 12.210938 1.335938 12.125 1.335938 12.039062 1.335938 Z M 12.039062 1.335938 "/>
<path style=" stroke:none;fill-rule:nonzero;fill:rgb(49.019608%,45.882353%,93.333333%);fill-opacity:1;" d="M 11.808594 6.765625 C 12.644531 6.75 13.472656 6.886719 14.234375 7.246094 C 14.25 7.25 14.261719 7.257812 14.273438 7.265625 C 14.648438 7.4375 15.003906 7.65625 15.304688 7.941406 C 15.34375 7.980469 15.382812 8.011719 15.425781 8.046875 C 15.441406 8.058594 15.453125 8.070312 15.46875 8.082031 C 15.496094 8.105469 15.523438 8.125 15.554688 8.148438 C 15.773438 8.332031 15.984375 8.535156 16.152344 8.765625 C 16.171875 8.789062 16.191406 8.816406 16.210938 8.84375 C 16.796875 9.613281 17.21875 10.6875 17.222656 11.664062 C 17.222656 11.679688 17.222656 11.691406 17.222656 11.703125 C 17.222656 11.75 17.222656 11.792969 17.222656 11.835938 C 17.222656 11.855469 17.222656 11.855469 17.222656 11.878906 C 17.222656 13.234375 16.792969 14.445312 15.914062 15.472656 C 15.890625 15.5 15.863281 15.53125 15.839844 15.5625 C 15.757812 15.664062 15.671875 15.757812 15.582031 15.847656 C 15.566406 15.859375 15.554688 15.875 15.539062 15.890625 C 15.445312 15.984375 15.347656 16.070312 15.238281 16.148438 C 15.207031 16.171875 15.175781 16.195312 15.148438 16.21875 C 14.988281 16.335938 14.828125 16.4375 14.65625 16.53125 C 14.640625 16.539062 14.628906 16.542969 14.617188 16.550781 C 13.902344 16.945312 13.027344 17.21875 12.207031 17.222656 C 12.191406 17.222656 12.179688 17.222656 12.160156 17.222656 C 12.113281 17.222656 12.0625 17.222656 12.015625 17.222656 C 11.988281 17.222656 11.988281 17.222656 11.964844 17.222656 C 11.71875 17.222656 11.476562 17.21875 11.234375 17.175781 C 11.21875 17.171875 11.203125 17.167969 11.1875 17.167969 C 10.242188 17.007812 9.378906 16.605469 8.632812 16.007812 C 8.613281 15.992188 8.589844 15.976562 8.570312 15.957031 C 8.332031 15.773438 8.105469 15.554688 7.921875 15.316406 C 7.90625 15.296875 7.890625 15.277344 7.875 15.257812 C 7.019531 14.167969 6.664062 12.789062 6.816406 11.421875 C 6.910156 10.640625 7.148438 9.875 7.574219 9.210938 C 7.582031 9.199219 7.589844 9.1875 7.597656 9.175781 C 7.683594 9.039062 7.78125 8.90625 7.882812 8.773438 C 7.957031 8.675781 8.03125 8.574219 8.09375 8.460938 C 8.101562 8.453125 8.109375 8.441406 8.113281 8.429688 C 8.128906 8.429688 8.144531 8.429688 8.160156 8.429688 C 8.160156 8.421875 8.160156 8.410156 8.160156 8.398438 C 8.179688 8.378906 8.179688 8.378906 8.210938 8.355469 C 8.261719 8.3125 8.304688 8.269531 8.351562 8.222656 C 8.417969 8.15625 8.484375 8.097656 8.558594 8.039062 C 8.597656 8.007812 8.636719 7.976562 8.675781 7.941406 C 8.699219 7.921875 8.699219 7.921875 8.742188 7.894531 C 8.800781 7.855469 8.855469 7.8125 8.910156 7.769531 C 9.445312 7.355469 10.054688 7.078125 10.710938 6.914062 C 10.722656 6.910156 10.738281 6.90625 10.753906 6.902344 C 11.09375 6.820312 11.457031 6.769531 11.808594 6.765625 Z M 9.601562 9.03125 C 9.582031 9.042969 9.566406 9.058594 9.546875 9.074219 C 9.351562 9.234375 9.171875 9.414062 9.019531 9.621094 C 9 9.644531 8.980469 9.667969 8.964844 9.691406 C 8.703125 10.039062 8.515625 10.433594 8.386719 10.84375 C 8.382812 10.859375 8.378906 10.871094 8.375 10.882812 C 8.183594 11.492188 8.117188 12.203125 8.28125 12.824219 C 8.285156 12.839844 8.289062 12.855469 8.292969 12.871094 C 8.347656 13.089844 8.414062 13.296875 8.503906 13.5 C 8.511719 13.511719 8.515625 13.527344 8.523438 13.542969 C 8.652344 13.832031 8.816406 14.105469 9.015625 14.355469 C 9.027344 14.367188 9.035156 14.382812 9.046875 14.394531 C 9.136719 14.507812 9.230469 14.613281 9.328125 14.714844 C 9.339844 14.726562 9.355469 14.738281 9.367188 14.753906 C 9.996094 15.398438 10.984375 15.785156 11.878906 15.796875 C 11.929688 15.796875 11.984375 15.796875 12.035156 15.796875 C 12.074219 15.796875 12.117188 15.796875 12.15625 15.796875 C 12.390625 15.800781 12.617188 15.78125 12.84375 15.726562 C 12.867188 15.71875 12.867188 15.71875 12.890625 15.710938 C 13.355469 15.59375 13.804688 15.398438 14.191406 15.121094 C 14.199219 15.113281 14.210938 15.105469 14.21875 15.097656 C 14.40625 14.96875 14.570312 14.816406 14.730469 14.65625 C 14.75 14.636719 14.75 14.636719 14.769531 14.617188 C 15.136719 14.261719 15.390625 13.78125 15.570312 13.304688 C 15.574219 13.292969 15.578125 13.28125 15.582031 13.269531 C 15.933594 12.324219 15.878906 11.304688 15.460938 10.394531 C 15.238281 9.914062 14.898438 9.449219 14.488281 9.105469 C 14.480469 9.097656 14.472656 9.089844 14.464844 9.085938 C 14.132812 8.800781 13.742188 8.59375 13.335938 8.445312 C 13.324219 8.441406 13.3125 8.4375 13.300781 8.433594 C 12.082031 7.980469 10.605469 8.1875 9.601562 9.03125 Z M 9.601562 9.03125 "/>
</g>
</svg>
